<svg width="128" height="128" viewBox="0 0 128 128" xmlns="http://www.w3.org/2000/svg">
  <defs>
    <linearGradient id="g" x1="0.08" y1="0" x2="0.92" y2="1">
  <stop offset="0%" stop-color="#7c3aed"/>
  <stop offset="52%" stop-color="#d946ef"/>
  <stop offset="100%" stop-color="#ec4899"/>
</linearGradient>
    <linearGradient id="bars" x1="0" y1="1" x2="0.7" y2="0">
  <stop offset="0%" stop-color="#7c3aed"/>
  <stop offset="52%" stop-color="#d946ef"/>
  <stop offset="100%" stop-color="#ec4899"/>
</linearGradient>
    <radialGradient id="gloss" cx="0.3" cy="0.12" r="0.95">
      <stop offset="0%" stop-color="#ffffff" stop-opacity="0.38"/>
      <stop offset="45%" stop-color="#ffffff" stop-opacity="0.06"/>
      <stop offset="100%" stop-color="#ffffff" stop-opacity="0"/>
    </radialGradient>
    <filter id="sh" x="-30%" y="-30%" width="160%" height="160%">
      <feDropShadow dx="0" dy="3.5" stdDeviation="4" flood-color="#2a0a3d" flood-opacity="0.22"/>
    </filter>
  </defs>
  <rect x="4" y="4" width="120" height="120" rx="30" fill="url(#g)"/>
  <rect x="4" y="4" width="120" height="120" rx="30" fill="url(#gloss)"/>
  <rect x="4.75" y="4.75" width="118.5" height="118.5" rx="29.25" fill="none" stroke="#ffffff" stroke-opacity="0.16" stroke-width="1.5"/>
  <g filter="url(#sh)">
    <path d="M35 31 h58 a15 15 0 0 1 15 15 v33 a15 15 0 0 1 -15 15 H60 l-15 15 v-15 h-10 a15 15 0 0 1 -15 -15 V46 a15 15 0 0 1 15 -15 z" fill="#ffffff"/>
  </g>
  <g>
    <rect x="44" y="60" width="11" height="24" rx="5.5" fill="url(#bars)"/>
    <rect x="61" y="50" width="11" height="34" rx="5.5" fill="url(#bars)"/>
    <rect x="78" y="42" width="11" height="42" rx="5.5" fill="url(#bars)"/>
  </g>
</svg>